<svg xmlns="http://www.w3.org/2000/svg" xmlns:xlink="http://www.w3.org/1999/xlink" width="500" zoomAndPan="magnify" viewBox="0 0 375 374.999991" height="500" preserveAspectRatio="xMidYMid meet" version="1.0"><defs><g/><clipPath id="75c1b169e8"><path d="M 49.070312 56.933594 L 326.167969 56.933594 L 326.167969 303.054688 L 49.070312 303.054688 Z M 49.070312 56.933594 " clip-rule="nonzero"/></clipPath><clipPath id="2b145f2fab"><path d="M 52.71875 60 L 322.625 60 L 322.625 317.933594 L 52.71875 317.933594 Z M 52.71875 60 " clip-rule="nonzero"/></clipPath></defs><g clip-path="url(#75c1b169e8)"><path fill="#f8b30d" d="M 237.066406 244.933594 C 234.828125 247.171875 227.636719 254.820312 226.4375 266.835938 C 225.605469 274.957031 227.898438 281.355469 229.253906 284.476562 C 231.542969 282.136719 237.277344 275.683594 239.152344 265.382812 C 240.976562 255.703125 238.265625 248.003906 237.066406 244.933594 Z M 259.679688 286.609375 C 244.882812 281.5625 231.648438 292.179688 230.660156 292.960938 C 232.167969 294.675781 238.734375 301.648438 249.78125 302.847656 C 262.285156 304.199219 270.9375 297.015625 272.445312 295.769531 C 270.464844 293.324219 266.351562 288.902344 259.679688 286.609375 Z M 279.480469 267.566406 C 270.414062 268.347656 263.746094 271.832031 260.359375 273.914062 C 263.539062 275.839844 270.574219 279.429688 280.160156 279.585938 C 292.039062 279.796875 300.480469 274.59375 303.503906 272.511719 C 299.957031 270.585938 291.152344 266.527344 279.480469 267.566406 Z M 247.644531 227.96875 C 245.976562 230.726562 242.175781 237.960938 242.695312 247.742188 C 243.320312 259.660156 249.886719 267.410156 251.917969 269.648438 C 253.167969 267.671875 260.621094 255.496094 256.136719 241.394531 C 254.054688 234.734375 250.09375 230.3125 247.644531 227.96875 Z M 294.332031 235.046875 C 284.691406 240.300781 281.042969 248.992188 280.160156 251.28125 C 281.929688 251.855469 293.238281 255.078125 304.230469 248.472656 C 313.191406 243.058594 316.214844 234.527344 316.945312 232.234375 C 314.757812 231.664062 304.753906 229.375 294.332031 235.046875 Z M 272.03125 250.96875 C 272.863281 248.992188 279.429688 233.171875 270.988281 220.164062 C 268.644531 216.574219 265.777344 214.078125 263.226562 212.410156 C 261.609375 215.011719 258.898438 220.269531 259.003906 227.242188 C 259.109375 241.445312 270.574219 249.980469 272.03125 250.96875 Z M 308.503906 204.65625 C 298.863281 210.226562 295.269531 219.019531 294.332031 221.621094 C 297.09375 221.828125 304.804688 222.140625 312.726562 217.40625 C 322.15625 211.734375 325.386719 202.835938 326.167969 200.445312 C 323.199219 200.289062 316.007812 200.339844 308.503906 204.65625 Z M 266.039062 191.234375 C 265.363281 190.972656 264.632812 190.714844 263.902344 190.503906 C 264.058594 193.886719 264.734375 199.039062 267.445312 204.65625 C 272.445312 214.960938 280.992188 219.902344 284.222656 221.570312 C 282.972656 214.078125 278.910156 196.386719 266.039062 191.234375 Z M 302.148438 188.421875 C 303.8125 188.058594 316.996094 185.144531 322.675781 172.867188 C 325.542969 166.671875 325.175781 160.898438 324.8125 158.035156 C 321.738281 158.867188 316.738281 160.742188 312.101562 165.113281 C 302.617188 173.90625 302.148438 185.820312 302.148438 188.421875 Z M 283.753906 173.59375 C 278.4375 166.933594 271.664062 164.542969 268.902344 163.707031 C 268.332031 166.152344 266.820312 174.21875 271.039062 182.804688 C 276.617188 194.148438 287.816406 197.320312 289.589844 197.789062 C 289.902344 195.761719 291.882812 183.792969 283.753906 173.59375 Z M 303.554688 161.574219 C 305.484375 160.6875 321.375 152.882812 323.351562 137.535156 C 323.824219 133.839844 323.40625 130.511719 322.625 127.648438 C 319.65625 128.6875 315.226562 130.667969 311.316406 134.726562 C 301.316406 145.027344 303.242188 159.441406 303.554688 161.574219 Z M 281.460938 142.375 C 278.4375 140.65625 275.417969 139.773438 272.761719 139.355469 C 272.65625 141.90625 272.761719 148.515625 277.03125 155.070312 C 283.390625 164.800781 294.019531 166.570312 295.789062 166.828125 C 295.53125 164.4375 293.652344 149.347656 281.460938 142.375 Z M 268.175781 129.054688 C 277.398438 136.128906 287.976562 134.308594 289.746094 133.996094 C 288.703125 131.863281 281.984375 118.230469 268.175781 115.628906 C 264.734375 115.003906 261.609375 115.160156 258.953125 115.628906 C 259.734375 118.074219 261.976562 124.320312 268.175781 129.054688 Z M 303.554688 119.167969 C 304.648438 108.867188 299.957031 101.371094 298.601562 99.394531 C 296.730469 101.683594 292.457031 107.617188 291.519531 116.355469 C 290.476562 126.296875 294.332031 133.683594 295.738281 136.128906 C 297.511719 134.207031 302.5625 128.324219 303.554688 119.167969 Z M 249.050781 94.453125 C 249.625 95.90625 253.324219 104.910156 263.226562 108.605469 C 270.464844 111.308594 276.875 109.59375 278.960938 108.917969 C 277.65625 106.679688 272.34375 98.25 261.816406 95.179688 C 256.503906 93.617188 251.867188 93.984375 249.050781 94.453125 Z M 290.113281 83.109375 C 288.757812 77.230469 285.628906 73.222656 283.753906 71.140625 C 282.242188 73.847656 279.636719 79.308594 279.535156 86.699219 C 279.378906 96.324219 283.492188 103.246094 285.210938 105.792969 C 286.308594 104.128906 292.769531 94.816406 290.113281 83.109375 Z M 238.839844 78.0625 C 237.171875 78.371094 234.878906 79.152344 232.378906 80.972656 C 233.210938 82.328125 236.753906 87.84375 244.050781 90.082031 C 252.074219 92.527344 258.691406 89.09375 259.941406 88.414062 C 254.261719 80.816406 246.1875 76.605469 238.839844 78.0625 Z M 268.59375 84.828125 C 271.980469 75.925781 271.144531 66.875 265.933594 61.515625 C 264.789062 60.316406 262.859375 58.757812 259.941406 57.664062 C 259.265625 59.070312 256.503906 65.054688 258.589844 72.390625 C 260.933594 80.453125 267.394531 84.148438 268.59375 84.828125 Z M 239.515625 73.585938 C 246.34375 78.476562 253.6875 77.332031 255.09375 77.125 C 252.179688 68.070312 245.875 61.515625 238.472656 60.523438 C 236.808594 60.316406 234.359375 60.265625 231.386719 61.253906 C 231.699219 62.761719 233.316406 69.164062 239.515625 73.585938 Z M 138.226562 244.203125 C 136.972656 247.273438 134.316406 254.976562 136.085938 264.707031 C 137.964844 274.957031 143.695312 281.460938 145.988281 283.800781 C 147.34375 280.679688 149.636719 274.277344 148.800781 266.164062 C 147.65625 254.089844 140.464844 246.441406 138.226562 244.203125 Z M 115.558594 285.9375 C 108.890625 288.171875 104.769531 292.648438 102.84375 295.144531 C 104.304688 296.394531 113.003906 303.574219 125.507812 302.21875 C 136.503906 301.027344 143.070312 294.050781 144.632812 292.335938 C 143.589844 291.449219 130.410156 280.886719 115.558594 285.9375 Z M 95.757812 266.835938 C 84.085938 265.851562 75.28125 269.910156 71.683594 271.78125 C 74.707031 273.863281 83.148438 279.066406 95.027344 278.859375 C 104.617188 278.703125 111.652344 275.113281 114.828125 273.1875 C 111.496094 271.105469 104.824219 267.617188 95.757812 266.835938 Z M 119.101562 240.71875 C 114.621094 254.820312 122.070312 266.996094 123.320312 268.972656 C 125.351562 266.785156 131.917969 258.980469 132.542969 247.066406 C 133.066406 237.285156 129.261719 230.050781 127.59375 227.292969 C 125.144531 229.632812 121.238281 234.058594 119.101562 240.71875 Z M 95.082031 250.605469 C 94.195312 248.261719 90.597656 239.625 80.910156 234.371094 C 70.539062 228.699219 60.480469 230.988281 58.242188 231.5625 C 58.972656 233.847656 61.992188 242.382812 70.957031 247.792969 C 82 254.402344 93.257812 251.125 95.082031 250.605469 Z M 116.289062 226.566406 C 116.339844 219.59375 113.628906 214.335938 112.066406 211.734375 C 109.515625 213.453125 106.59375 215.898438 104.304688 219.488281 C 95.863281 232.496094 102.425781 248.316406 103.261719 250.292969 C 104.667969 249.253906 116.183594 240.71875 116.289062 226.566406 Z M 80.910156 220.894531 C 79.96875 218.34375 76.375 209.496094 66.734375 203.929688 C 59.230469 199.609375 52.042969 199.558594 49.070312 199.714844 C 49.851562 202.109375 53.082031 211.007812 62.515625 216.679688 C 70.433594 221.414062 78.148438 221.152344 80.910156 220.894531 Z M 107.792969 203.929688 C 110.503906 198.363281 111.179688 193.160156 111.335938 189.777344 C 110.609375 189.984375 109.878906 190.195312 109.199219 190.503906 C 96.332031 195.65625 92.265625 213.347656 90.964844 220.839844 C 94.246094 219.175781 102.792969 214.285156 107.792969 203.929688 Z M 73.144531 187.695312 C 73.09375 185.144531 72.675781 173.175781 63.242188 164.382812 C 58.605469 160.066406 53.554688 158.195312 50.53125 157.308594 C 50.167969 160.167969 49.800781 165.945312 52.664062 172.136719 C 58.242188 184.417969 71.476562 187.382812 73.144531 187.695312 Z M 104.25 182.023438 C 108.472656 173.4375 106.960938 165.371094 106.386719 162.925781 C 103.625 163.761719 96.800781 166.152344 91.539062 172.8125 C 83.40625 183.011719 85.335938 195.03125 85.703125 197.007812 C 87.472656 196.542969 98.675781 193.367188 104.25 182.023438 Z M 71.738281 160.847656 C 72.050781 158.765625 73.976562 144.300781 63.972656 133.996094 C 60.066406 129.9375 55.636719 127.960938 52.664062 126.921875 C 51.882812 129.78125 51.46875 133.113281 51.9375 136.808594 C 53.863281 152.15625 69.757812 159.960938 71.738281 160.847656 Z M 98.207031 154.339844 C 102.480469 147.835938 102.582031 141.175781 102.480469 138.628906 C 99.820312 139.042969 96.800781 139.929688 93.777344 141.644531 C 81.585938 148.617188 79.710938 163.707031 79.449219 166.101562 C 81.273438 165.84375 91.851562 164.070312 98.207031 154.339844 Z M 107.066406 114.898438 C 93.203125 117.5 86.484375 131.136719 85.492188 133.269531 C 87.265625 133.582031 97.84375 135.402344 107.066406 128.324219 C 113.265625 123.589844 115.503906 117.347656 116.289062 114.898438 C 113.683594 114.433594 110.503906 114.277344 107.066406 114.898438 Z M 79.5 135.402344 C 80.960938 132.957031 84.816406 125.515625 83.722656 115.628906 C 82.785156 106.886719 78.511719 100.957031 76.6875 98.664062 C 75.332031 100.644531 70.640625 108.136719 71.738281 118.4375 C 72.726562 127.648438 77.730469 133.527344 79.5 135.402344 Z M 112.066406 107.875 C 121.964844 104.183594 125.667969 95.234375 126.242188 93.722656 C 123.425781 93.253906 118.789062 92.890625 113.527344 94.453125 C 102.898438 97.523438 97.632812 105.898438 96.28125 108.1875 C 98.363281 108.8125 104.769531 110.582031 112.066406 107.875 Z M 95.757812 85.96875 C 95.601562 78.632812 93.046875 73.117188 91.539062 70.410156 C 89.660156 72.492188 86.535156 76.550781 85.179688 82.433594 C 82.523438 94.085938 88.984375 103.453125 90.132812 105.066406 C 91.796875 102.464844 95.964844 95.542969 95.757812 85.96875 Z M 131.191406 89.351562 C 138.484375 87.167969 142.027344 81.597656 142.859375 80.246094 C 140.359375 78.371094 138.015625 77.644531 136.402344 77.332031 C 129.054688 75.875 120.976562 80.089844 115.296875 87.738281 C 116.546875 88.414062 123.164062 91.796875 131.191406 89.351562 Z M 116.652344 71.660156 C 118.734375 64.324219 116.027344 58.339844 115.296875 56.933594 C 112.378906 58.027344 110.503906 59.589844 109.304688 60.785156 C 104.144531 66.144531 103.3125 75.25 106.648438 84.097656 C 107.898438 83.417969 114.359375 79.726562 116.652344 71.660156 Z M 120.195312 76.394531 C 123.113281 67.34375 129.417969 60.785156 136.816406 59.796875 C 138.484375 59.589844 140.933594 59.539062 143.902344 60.523438 C 143.539062 62.085938 141.976562 68.4375 135.773438 72.910156 C 128.898438 77.75 121.550781 76.65625 120.195312 76.394531 " fill-opacity="1" fill-rule="nonzero"/></g><g clip-path="url(#2b145f2fab)"><path fill="#284594" d="M 285.734375 78.320312 C 286.933594 84.253906 286.828125 90.496094 286.726562 96.535156 L 286.726562 97.105469 M 286.726562 97.105469 C 286.566406 104.183594 286.046875 110.324219 285.210938 115.890625 C 287.765625 121.402344 290.007812 127.128906 291.828125 132.90625 C 291.933594 133.113281 292.039062 133.320312 292.039062 133.582031 C 292.195312 134.046875 292.351562 134.519531 292.457031 134.984375 C 292.609375 135.507812 292.769531 136.027344 292.925781 136.546875 C 293.289062 137.792969 293.601562 139.042969 293.96875 140.34375 C 294.28125 139.09375 294.589844 137.847656 294.800781 136.546875 C 295.476562 132.851562 295.84375 129.054688 296.15625 125.359375 L 296.15625 125.152344 C 296.46875 121.351562 296.730469 117.398438 296.9375 113.652344 C 297.144531 110.425781 297.355469 107.042969 297.613281 103.765625 C 297.613281 103.191406 298.082031 102.777344 298.601562 102.777344 C 299.175781 102.777344 299.644531 103.246094 299.644531 103.820312 C 299.957031 111.726562 299.28125 119.949219 298.710938 127.234375 L 298.601562 128.742188 C 298.136719 134.570312 297.613281 141.175781 295.425781 146.746094 C 296.675781 152.730469 297.457031 158.765625 297.875 164.644531 C 301.679688 160.585938 305.535156 156.421875 308.765625 151.738281 C 312.566406 146.171875 315.746094 140.449219 318.195312 134.777344 C 318.402344 134.414062 318.71875 134.207031 319.082031 134.207031 C 319.394531 134.207031 319.707031 134.363281 319.914062 134.621094 C 320.125 134.882812 320.175781 135.140625 320.074219 135.453125 L 320.074219 135.558594 C 315.226562 148.203125 307.878906 159.546875 298.1875 169.328125 C 298.394531 176.195312 298.136719 182.960938 297.40625 189.621094 C 301.625 186.082031 305.484375 182.023438 309.078125 178.171875 C 311.214844 175.832031 313.039062 173.125 314.757812 170.523438 C 316.578125 167.820312 318.457031 165.007812 320.75 162.511719 C 320.957031 162.304688 321.21875 162.199219 321.425781 162.199219 C 321.789062 162.199219 322.15625 162.40625 322.3125 162.71875 C 322.46875 163.03125 322.46875 163.398438 322.261719 163.65625 C 320.699219 165.894531 319.238281 168.234375 317.882812 170.472656 C 315.796875 173.90625 313.609375 177.496094 310.902344 180.671875 C 306.417969 185.820312 301.992188 190.765625 296.78125 194.5625 C 295.425781 203.566406 293.183594 212.460938 290.058594 221.046875 C 295.894531 219.125 301 216.78125 305.691406 213.871094 C 308.972656 211.789062 311.839844 209.757812 314.390625 207.625 C 315.328125 206.84375 316.269531 205.957031 317.152344 205.074219 C 318.351562 203.929688 319.550781 202.734375 320.957031 201.691406 L 321.945312 200.964844 L 322.207031 202.160156 C 322.207031 202.160156 322.261719 202.210938 322.261719 202.265625 C 322.417969 202.160156 322.675781 202.683594 322.363281 203.253906 C 318.820312 208.613281 312.308594 213.140625 307.046875 216.472656 C 300.898438 220.320312 294.539062 223.339844 288.132812 225.421875 C 284.328125 234.992188 279.378906 244.152344 273.488281 252.632812 C 276.199219 251.800781 278.855469 250.65625 281.460938 249.5625 C 284.066406 248.472656 286.777344 247.378906 289.484375 246.492188 C 295.425781 244.621094 300.792969 241.1875 306.003906 237.855469 C 307.410156 236.972656 308.921875 235.984375 310.378906 235.097656 L 310.433594 235.046875 C 310.585938 234.992188 310.746094 234.941406 310.902344 234.941406 C 311.265625 234.941406 311.578125 235.148438 311.734375 235.464844 C 311.890625 235.773438 311.890625 236.191406 311.683594 236.503906 L 311.683594 236.609375 C 309.703125 239 306.835938 240.769531 304.128906 242.433594 C 303.292969 242.957031 302.511719 243.421875 301.78125 243.890625 C 299.335938 245.503906 296.050781 247.585938 292.246094 248.992188 C 288.546875 250.34375 284.796875 251.855469 280.472656 253.828125 C 277.292969 255.285156 273.851562 256.796875 270.15625 257.316406 C 265.988281 262.78125 261.503906 267.878906 256.816406 272.511719 C 257.179688 272.511719 257.492188 272.511719 257.855469 272.511719 C 259.265625 272.511719 260.722656 272.40625 262.128906 272.355469 C 262.546875 272.355469 262.964844 272.300781 263.382812 272.300781 L 265.101562 272.199219 C 267.550781 272.09375 270.050781 271.9375 272.5 271.9375 C 272.863281 271.9375 273.226562 271.9375 273.59375 271.9375 C 275.675781 271.9375 277.867188 271.992188 279.953125 272.042969 C 282.554688 272.09375 285.210938 272.148438 287.816406 272.148438 C 290.371094 272.148438 292.609375 272.09375 294.644531 271.992188 C 295.269531 271.992188 295.738281 272.40625 295.789062 273.03125 C 295.84375 273.601562 295.476562 274.070312 294.957031 274.175781 C 290.789062 275.007812 286.621094 275.113281 283.078125 275.113281 C 281.773438 275.113281 280.472656 275.113281 279.167969 275.058594 C 277.867188 275.058594 276.5625 275.007812 275.3125 275.007812 C 274.167969 275.007812 273.175781 275.007812 272.289062 275.058594 C 269.738281 275.113281 267.183594 275.320312 264.683594 275.476562 C 263.171875 275.578125 261.609375 275.683594 260.097656 275.734375 L 259.214844 275.789062 C 258.378906 275.839844 257.492188 275.894531 256.660156 275.894531 C 255.460938 275.894531 254.46875 275.789062 253.53125 275.632812 C 251.605469 277.351562 249.78125 278.859375 247.90625 280.316406 C 242.589844 284.375 236.597656 287.703125 229.5625 290.410156 C 233.992188 291.347656 238.789062 292.125 244.519531 292.75 C 247.59375 293.113281 250.5625 293.324219 253.636719 293.375 C 253.792969 293.375 254.003906 293.375 254.160156 293.375 C 255.253906 293.375 256.398438 293.324219 257.546875 293.269531 C 258.691406 293.21875 259.890625 293.167969 261.035156 293.167969 C 261.976562 293.167969 262.808594 293.21875 263.589844 293.269531 C 264.058594 293.269531 264.421875 293.636719 264.472656 294.105469 C 264.527344 294.570312 264.214844 295.042969 263.746094 295.144531 C 260.933594 295.976562 257.648438 296.394531 253.742188 296.394531 C 250.144531 296.394531 246.605469 296.03125 243.164062 295.714844 L 243.109375 295.714844 C 242.175781 295.613281 241.289062 295.5625 240.296875 295.457031 C 234.929688 295.042969 228.886719 294.519531 223.886719 292.335938 C 222.113281 292.855469 220.289062 293.425781 218.46875 293.894531 C 214.191406 294.988281 209.660156 295.976562 205.285156 296.914062 C 202.46875 297.488281 199.601562 298.109375 196.738281 298.789062 C 206.484375 302.429688 213.828125 307.164062 219.664062 313.511719 C 220.289062 314.1875 220.394531 315.074219 220.03125 315.90625 C 219.664062 316.738281 218.832031 317.257812 218.050781 317.257812 C 217.476562 317.257812 216.953125 317 216.539062 316.53125 C 210.023438 309.402344 201.273438 304.355469 189.132812 300.710938 C 179.804688 303.3125 167.976562 307.53125 159.066406 317.257812 C 158.648438 317.726562 158.128906 317.9375 157.554688 317.9375 C 156.722656 317.9375 155.886719 317.363281 155.523438 316.53125 C 155.160156 315.699219 155.3125 314.863281 155.941406 314.1875 C 162.191406 307.375 170.269531 302.378906 181.261719 298.578125 C 177.667969 297.746094 174.019531 296.964844 170.476562 296.1875 C 164.222656 294.832031 157.710938 293.480469 151.667969 291.660156 C 146.664062 293.894531 140.828125 294.363281 135.203125 294.78125 C 134.265625 294.832031 133.324219 294.9375 132.441406 294.988281 L 132.386719 294.988281 C 128.949219 295.300781 125.40625 295.664062 121.8125 295.664062 C 117.902344 295.664062 114.621094 295.25 111.753906 294.363281 C 111.335938 294.261719 111.023438 293.792969 111.078125 293.324219 C 111.128906 292.855469 111.546875 292.492188 111.960938 292.492188 C 112.742188 292.441406 113.578125 292.386719 114.515625 292.386719 C 115.664062 292.386719 116.863281 292.441406 117.953125 292.492188 C 119.050781 292.542969 120.25 292.59375 121.339844 292.59375 C 121.496094 292.59375 121.707031 292.59375 121.863281 292.59375 C 125.144531 292.542969 128.429688 292.230469 130.980469 291.96875 C 136.710938 291.347656 141.503906 290.566406 145.882812 289.628906 C 137.546875 286.402344 129.519531 281.460938 121.964844 274.851562 C 120.976562 275.058594 119.933594 275.113281 118.683594 275.113281 C 117.539062 275.113281 116.390625 275.058594 115.246094 274.957031 L 114.722656 274.902344 C 113.265625 274.800781 111.804688 274.75 110.398438 274.644531 C 108.054688 274.488281 105.660156 274.332031 103.261719 274.226562 C 102.375 274.226562 101.492188 274.175781 100.449219 274.175781 C 99.09375 274.175781 97.738281 274.175781 96.332031 274.226562 C 94.976562 274.226562 93.570312 274.277344 92.214844 274.277344 C 88.773438 274.277344 84.660156 274.175781 80.542969 273.34375 C 80.023438 273.292969 79.65625 272.820312 79.710938 272.25 C 79.761719 271.625 80.230469 271.210938 80.804688 271.210938 C 82.890625 271.3125 85.128906 271.367188 87.683594 271.367188 C 90.289062 271.367188 92.996094 271.3125 95.550781 271.261719 C 97.632812 271.210938 99.769531 271.15625 101.90625 271.15625 C 105.292969 271.15625 108.730469 271.3125 112.066406 271.46875 C 112.742188 271.519531 113.421875 271.519531 114.097656 271.574219 C 115.296875 271.625 116.496094 271.730469 117.695312 271.730469 C 117.953125 271.730469 118.214844 271.730469 118.476562 271.730469 C 113.941406 267.410156 109.460938 262.3125 105.136719 256.535156 C 101.175781 255.964844 97.425781 254.246094 94.402344 252.839844 C 90.597656 251.074219 86.742188 249.617188 83.148438 248.210938 C 79.710938 246.960938 76.636719 245.140625 73.09375 242.851562 C 72.363281 242.382812 71.632812 241.914062 70.800781 241.445312 C 68.195312 239.886719 65.539062 238.21875 63.660156 235.929688 C 63.402344 235.671875 63.347656 235.253906 63.503906 234.941406 C 63.660156 234.578125 64.023438 234.316406 64.441406 234.316406 C 64.597656 234.316406 64.757812 234.371094 64.914062 234.421875 L 64.964844 234.472656 C 66.527344 235.410156 68.089844 236.398438 69.601562 237.386719 C 74.707031 240.613281 80.023438 243.996094 85.859375 245.871094 C 88.566406 246.753906 91.171875 247.84375 93.726562 248.886719 C 96.382812 249.980469 99.042969 251.074219 101.800781 251.957031 C 101.230469 251.175781 100.707031 250.34375 100.132812 249.511719 C 95.027344 241.8125 90.652344 233.433594 87.109375 224.691406 C 80.699219 222.609375 74.394531 219.644531 68.246094 215.792969 C 62.304688 211.996094 56.3125 207.78125 52.925781 202.628906 C 52.71875 202.265625 52.71875 201.847656 52.925781 201.484375 C 53.136719 201.121094 53.5 200.910156 53.917969 200.910156 C 54.074219 200.910156 54.28125 200.964844 54.4375 201.015625 L 54.542969 201.121094 C 55.949219 202.160156 57.25 203.410156 58.503906 204.605469 C 59.492188 205.542969 60.480469 206.53125 61.578125 207.414062 C 64.078125 209.394531 66.839844 211.371094 69.859375 213.296875 C 74.445312 216.15625 79.554688 218.5 85.441406 220.425781 C 82.316406 211.789062 80.019531 202.835938 78.613281 193.835938 C 73.09375 189.882812 68.402344 184.417969 64.648438 180.046875 C 61.941406 176.871094 59.753906 173.28125 57.667969 169.847656 C 56.3125 167.558594 54.855469 165.21875 53.292969 163.03125 C 53.082031 162.71875 53.082031 162.355469 53.238281 162.042969 C 53.398438 161.730469 53.761719 161.523438 54.125 161.523438 C 54.386719 161.523438 54.644531 161.625 54.804688 161.78125 C 57.199219 164.332031 59.128906 167.195312 60.953125 169.953125 C 62.617188 172.503906 64.390625 175.15625 66.472656 177.445312 C 69.496094 180.773438 73.457031 184.9375 77.9375 188.789062 C 77.207031 182.335938 76.949219 175.519531 77.207031 168.546875 C 67.621094 158.816406 60.328125 147.472656 55.429688 134.933594 C 55.324219 134.671875 55.324219 134.363281 55.480469 134.101562 C 55.6875 133.789062 56 133.632812 56.367188 133.632812 C 56.730469 133.632812 57.09375 133.839844 57.25 134.152344 C 59.753906 140.03125 62.933594 145.757812 66.683594 151.167969 C 69.859375 155.800781 73.71875 159.960938 77.46875 163.96875 C 77.9375 157.933594 78.773438 151.949219 79.96875 146.121094 C 77.78125 140.554688 77.261719 133.945312 76.792969 128.117188 L 76.6875 126.609375 C 76.113281 119.324219 75.4375 111.050781 75.75 103.140625 C 75.75 102.621094 76.21875 102.152344 76.742188 102.152344 C 77.3125 102.152344 77.730469 102.570312 77.730469 103.140625 C 77.988281 106.421875 78.199219 109.800781 78.40625 113.027344 C 78.613281 116.828125 78.875 120.730469 79.1875 124.527344 C 79.605469 129.054688 80.019531 132.800781 80.699219 136.597656 C 80.910156 137.640625 81.117188 138.730469 81.375 139.773438 C 82 137.429688 82.625 135.191406 83.304688 133.007812 C 83.304688 132.800781 83.355469 132.539062 83.515625 132.226562 C 83.980469 130.769531 84.449219 129.316406 85.023438 127.753906 C 86.429688 123.851562 88.097656 119.792969 90.132812 115.371094 C 89.246094 109.4375 88.722656 103.140625 88.617188 96.585938 L 88.617188 95.441406 C 88.515625 89.558594 88.410156 83.472656 89.660156 77.695312 L 89.660156 77.59375 C 89.765625 77.230469 90.132812 76.96875 90.546875 76.96875 C 91.015625 76.96875 91.433594 77.386719 91.484375 77.851562 C 91.746094 81.390625 91.589844 84.980469 91.484375 88.46875 C 91.378906 90.914062 91.328125 93.410156 91.378906 95.855469 C 91.484375 100.539062 91.851562 105.328125 92.578125 110.53125 C 95.707031 104.390625 99.300781 98.5625 103.261719 93.203125 C 103.835938 89.558594 104.980469 85.917969 106.074219 82.378906 C 106.492188 81.078125 106.910156 79.726562 107.273438 78.371094 C 107.484375 77.59375 107.742188 76.8125 107.949219 75.980469 C 109.355469 70.933594 110.816406 65.675781 112.902344 60.679688 C 113.003906 60.316406 113.421875 60.003906 113.890625 60.003906 C 114.203125 60.003906 114.566406 60.160156 114.722656 60.421875 C 114.933594 60.679688 114.984375 60.996094 114.882812 61.359375 C 113.996094 65.3125 112.847656 69.320312 111.753906 73.222656 C 111.234375 74.992188 110.761719 76.761719 110.242188 78.53125 C 109.566406 81.132812 108.890625 83.835938 108.265625 86.4375 C 108.210938 86.648438 108.15625 86.855469 108.105469 87.0625 C 110.921875 83.785156 113.941406 80.664062 117.070312 77.800781 C 117.121094 77.695312 117.226562 77.488281 117.382812 77.332031 C 125.5625 68.851562 133.480469 63.441406 141.664062 60.785156 L 141.820312 60.578125 L 142.027344 60.578125 C 142.339844 60.578125 142.601562 60.734375 142.757812 60.996094 C 142.914062 61.253906 142.964844 61.617188 142.808594 61.929688 L 142.703125 62.085938 L 142.546875 62.191406 C 140.621094 63.542969 138.484375 64.742188 136.453125 65.886719 C 134.472656 66.976562 132.441406 68.121094 130.617188 69.371094 C 126.96875 71.921875 123.789062 75.09375 121.394531 77.59375 C 118.734375 80.609375 116.289062 83.527344 113.941406 86.4375 C 115.609375 86.074219 117.277344 85.761719 118.894531 85.449219 C 120.402344 85.191406 122.019531 84.878906 123.527344 84.566406 C 128.738281 83.472656 133.640625 82.171875 138.589844 80.609375 L 138.691406 80.558594 L 138.847656 80.558594 C 139.265625 80.558594 139.683594 80.871094 139.789062 81.289062 C 139.890625 81.703125 139.683594 82.117188 139.265625 82.328125 C 134.367188 84.667969 129.210938 86.128906 124.832031 87.167969 C 123.527344 87.480469 122.226562 87.792969 120.976562 88.15625 C 117.644531 88.988281 114.203125 89.875 110.761719 90.496094 C 107.324219 95.078125 104.144531 99.707031 101.332031 104.285156 C 102.738281 103.710938 104.144531 103.140625 105.554688 102.570312 C 111.441406 100.175781 117.589844 97.730469 123.269531 94.503906 C 123.425781 94.398438 123.582031 94.398438 123.738281 94.398438 C 124.207031 94.398438 124.570312 94.710938 124.726562 95.179688 C 124.832031 95.597656 124.675781 95.960938 124.3125 96.167969 C 116.863281 101.214844 108.054688 105.484375 98.832031 108.550781 C 94.871094 115.578125 91.746094 122.394531 89.246094 129.367188 C 96.957031 125.878906 104.71875 121.664062 113.527344 116.199219 C 113.683594 116.097656 113.839844 116.046875 113.996094 116.046875 C 114.359375 116.046875 114.722656 116.304688 114.828125 116.671875 C 114.933594 117.035156 114.777344 117.5 114.464844 117.710938 C 107.011719 123.382812 98.101562 128.480469 87.941406 132.90625 C 87.210938 135.039062 86.691406 136.808594 86.222656 138.523438 C 84.242188 145.707031 82.886719 153.039062 82.210938 160.429688 C 88.253906 154.707031 94.507812 148.460938 100.082031 141.175781 C 100.238281 140.96875 100.5 140.8125 100.8125 140.8125 C 101.175781 140.8125 101.492188 141.023438 101.644531 141.332031 C 101.800781 141.644531 101.800781 142.011719 101.59375 142.269531 C 96.695312 150.753906 89.246094 158.140625 81.84375 164.851562 C 81.167969 175.675781 81.84375 186.445312 83.722656 196.90625 C 85.078125 194.980469 86.429688 193.105469 87.734375 191.234375 C 92.996094 183.792969 98.46875 176.09375 103 167.921875 C 103.15625 167.609375 103.46875 167.402344 103.835938 167.402344 C 104.144531 167.402344 104.460938 167.558594 104.667969 167.820312 C 104.878906 168.078125 104.929688 168.339844 104.824219 168.652344 L 104.824219 168.753906 C 102.53125 174.6875 99.09375 180.203125 95.757812 185.355469 C 91.746094 191.496094 88.308594 196.59375 84.710938 201.640625 C 86.011719 207.675781 87.835938 213.710938 90.027344 219.695312 C 92.945312 216.054688 95.808594 212.410156 98.414062 208.507812 C 99.875 206.375 101.175781 204.085938 102.480469 201.902344 C 103.679688 199.871094 104.929688 197.738281 106.285156 195.707031 L 106.285156 195.605469 C 106.492188 195.34375 106.804688 195.1875 107.167969 195.1875 C 107.535156 195.1875 107.898438 195.34375 108.105469 195.65625 C 108.316406 195.96875 108.316406 196.332031 108.15625 196.644531 C 104.980469 204.761719 99.25 213.554688 91.222656 222.871094 C 94.457031 230.933594 98.46875 238.6875 103.054688 245.871094 C 103.886719 241.8125 104.824219 237.59375 105.867188 233.484375 C 106.285156 231.714844 106.804688 229.945312 107.273438 228.230469 C 108.367188 224.222656 109.515625 220.113281 110.085938 215.949219 C 110.191406 215.378906 110.609375 215.011719 111.128906 215.011719 C 111.652344 215.011719 112.117188 215.429688 112.171875 215.949219 L 112.171875 216 C 112.433594 219.957031 111.335938 224.066406 110.296875 228.074219 C 109.828125 229.738281 109.410156 231.351562 109.097656 232.863281 C 107.847656 238.894531 106.699219 244.308594 105.761719 249.773438 C 107.222656 251.800781 109.097656 254.402344 111.078125 256.847656 C 114.566406 261.21875 118.007812 265.015625 121.496094 268.398438 C 122.539062 259.867188 123.738281 251.175781 124.886719 242.796875 C 125.300781 239.9375 125.667969 237.023438 126.082031 234.164062 C 126.1875 233.640625 126.605469 233.328125 127.074219 233.328125 C 127.648438 233.328125 128.113281 233.746094 128.113281 234.316406 C 127.855469 247.691406 126.707031 260.125 124.78125 271.261719 C 124.886719 271.367188 124.988281 271.519531 125.09375 271.730469 C 128.0625 274.382812 131.085938 276.722656 134.160156 278.753906 C 137.128906 280.730469 140.414062 282.5 144.214844 284.113281 C 144.007812 282.449219 143.851562 280.835938 143.695312 279.222656 C 143.382812 276.359375 143.070312 273.449219 142.652344 270.585938 C 142.234375 267.566406 141.714844 264.550781 141.195312 261.582031 C 140.722656 258.980469 140.257812 256.277344 139.890625 253.570312 C 139.839844 253.207031 139.941406 252.894531 140.152344 252.632812 C 140.359375 252.375 140.671875 252.269531 140.984375 252.269531 C 141.453125 252.269531 141.871094 252.582031 142.027344 253 C 143.902344 258.773438 145 264.808594 145.933594 270.53125 C 146.769531 275.632812 147.550781 280.679688 147.8125 285.519531 C 154.0625 287.859375 160.421875 289.367188 165.371094 290.460938 C 166.777344 290.773438 168.183594 291.085938 169.640625 291.398438 C 176.050781 292.75 182.667969 294.207031 189.078125 296.03125 C 193.925781 294.730469 198.976562 293.636719 203.824219 292.59375 C 208.722656 291.554688 213.777344 290.460938 218.570312 289.160156 C 221.488281 288.378906 224.5625 287.390625 227.792969 286.195312 C 228.054688 281.304688 228.835938 276.359375 229.667969 271.261719 C 230.605469 265.589844 231.699219 259.503906 233.523438 253.777344 C 233.679688 253.308594 234.046875 253 234.566406 253 C 234.878906 253 235.191406 253.15625 235.453125 253.414062 C 235.660156 253.675781 235.765625 253.984375 235.710938 254.300781 C 235.296875 257.316406 234.773438 260.386719 234.253906 263.351562 C 233.785156 265.953125 233.316406 268.660156 232.949219 271.3125 C 232.585938 273.96875 232.324219 276.722656 232.015625 279.378906 C 231.859375 281.148438 231.648438 282.96875 231.441406 284.789062 C 237.796875 281.980469 243.371094 278.546875 248.320312 274.332031 C 249.050781 273.707031 249.832031 273.03125 250.617188 272.355469 C 250.667969 272.25 250.773438 272.148438 250.824219 272.09375 C 248.84375 260.59375 247.75 248.160156 247.488281 235.148438 C 247.488281 234.578125 247.957031 234.109375 248.53125 234.109375 C 249.050781 234.109375 249.46875 234.472656 249.519531 234.992188 L 250.40625 241.339844 C 251.65625 250.445312 252.960938 259.867188 254.105469 269.128906 C 259.734375 263.714844 264.996094 257.472656 269.738281 250.65625 L 269.789062 250.605469 C 268.851562 245.089844 267.707031 239.625 266.453125 233.640625 C 266.144531 232.183594 265.726562 230.675781 265.308594 229.113281 C 264.214844 225.054688 263.066406 220.839844 263.382812 216.78125 L 263.382812 216.730469 C 263.433594 216.15625 263.902344 215.792969 264.421875 215.792969 C 264.945312 215.792969 265.414062 216.210938 265.464844 216.730469 C 265.988281 221.046875 267.183594 225.367188 268.382812 229.53125 C 268.800781 231.089844 269.269531 232.652344 269.683594 234.265625 C 270.726562 238.375 271.613281 242.539062 272.5 246.597656 C 277.085938 239.574219 281.042969 231.871094 284.378906 223.703125 C 276.199219 214.285156 270.519531 205.4375 267.394531 197.425781 C 267.238281 197.113281 267.289062 196.75 267.496094 196.488281 C 267.707031 196.179688 268.070312 196.019531 268.433594 196.019531 C 268.851562 196.019531 269.164062 196.230469 269.375 196.542969 C 270.675781 198.519531 271.925781 200.652344 273.125 202.683594 C 274.425781 204.867188 275.730469 207.15625 277.1875 209.289062 C 280.003906 213.453125 283.078125 217.40625 285.628906 220.527344 C 287.871094 214.441406 289.695312 208.40625 290.996094 202.527344 C 287.609375 197.789062 284.066406 192.535156 279.84375 186.082031 C 276.511719 180.933594 273.019531 175.414062 270.78125 169.484375 C 270.675781 169.171875 270.675781 168.859375 270.882812 168.601562 C 271.039062 168.339844 271.355469 168.183594 271.71875 168.183594 C 272.03125 168.183594 272.34375 168.339844 272.550781 168.601562 L 272.605469 168.652344 L 272.605469 168.703125 C 277.1875 176.925781 282.710938 184.730469 288.027344 192.277344 C 289.332031 194.097656 290.683594 195.96875 291.988281 197.894531 C 292.300781 196.386719 292.558594 194.878906 292.769531 193.367188 C 294.125 184.46875 294.488281 175.15625 293.863281 165.738281 C 286.464844 159.023438 278.960938 151.582031 274.011719 143 C 273.851562 142.738281 273.851562 142.425781 274.011719 142.113281 C 274.167969 141.804688 274.480469 141.59375 274.84375 141.59375 C 275.15625 141.59375 275.417969 141.75 275.625 142.011719 C 280.992188 148.980469 286.878906 154.914062 293.5 161.261719 C 292.558594 151.792969 290.578125 142.582031 287.714844 133.738281 C 277.605469 129.316406 268.644531 124.214844 261.140625 118.542969 L 261.085938 118.492188 L 261.035156 118.4375 C 260.777344 118.179688 260.671875 117.761719 260.828125 117.398438 C 260.984375 117.085938 261.296875 116.878906 261.609375 116.878906 C 261.816406 116.878906 261.976562 116.929688 262.128906 117.035156 C 271.40625 122.703125 279.011719 126.816406 286.464844 130.199219 C 283.964844 123.175781 280.785156 116.199219 276.875 109.386719 C 267.757812 106.367188 258.898438 102.101562 251.292969 96.949219 C 250.925781 96.6875 250.773438 96.222656 250.925781 95.855469 C 251.082031 95.441406 251.449219 95.179688 251.8125 95.179688 C 252.023438 95.179688 252.179688 95.234375 252.335938 95.335938 C 257.960938 98.457031 263.953125 100.902344 269.738281 103.246094 C 271.25 103.871094 272.8125 104.492188 274.324219 105.121094 C 271.507812 100.539062 268.332031 95.90625 264.839844 91.277344 C 261.085938 90.601562 257.335938 89.664062 253.6875 88.730469 C 252.699219 88.46875 251.65625 88.207031 250.667969 87.949219 C 246.34375 86.90625 241.238281 85.5 236.234375 83.109375 L 236.183594 83.109375 L 236.128906 83.054688 C 235.765625 82.796875 235.609375 82.378906 235.765625 81.964844 C 235.871094 81.546875 236.234375 81.289062 236.652344 81.289062 L 236.753906 81.289062 L 236.910156 81.339844 C 241.808594 82.796875 246.707031 84.097656 251.96875 85.292969 C 253.378906 85.605469 254.886719 85.867188 256.292969 86.128906 C 258.015625 86.4375 259.785156 86.800781 261.558594 87.167969 C 259.214844 84.253906 256.765625 81.339844 254.105469 78.320312 C 250.824219 74.785156 247.90625 72.183594 244.933594 70.101562 C 243.109375 68.851562 241.132812 67.707031 239.152344 66.664062 C 237.117188 65.519531 234.984375 64.375 233.003906 62.972656 C 232.691406 62.761719 232.535156 62.398438 232.640625 62.035156 C 232.742188 61.617188 233.105469 61.304688 233.578125 61.304688 L 233.679688 61.304688 L 233.785156 61.359375 C 242.070312 64.0625 250.042969 69.476562 258.117188 77.957031 C 258.273438 78.113281 258.378906 78.269531 258.429688 78.425781 C 261.503906 81.183594 264.472656 84.253906 267.394531 87.6875 C 267.394531 87.582031 267.339844 87.480469 267.339844 87.375 C 266.664062 84.667969 265.988281 81.910156 265.257812 79.207031 C 264.789062 77.488281 264.320312 75.769531 263.796875 74.054688 C 262.703125 70.152344 261.558594 66.09375 260.621094 62.035156 C 260.515625 61.722656 260.621094 61.410156 260.777344 61.152344 C 260.984375 60.890625 261.296875 60.734375 261.609375 60.734375 C 262.078125 60.734375 262.496094 61.046875 262.601562 61.460938 C 264.472656 66.144531 265.933594 71.140625 267.289062 75.980469 C 267.601562 77.019531 267.859375 78.0625 268.175781 79.050781 C 268.539062 80.296875 268.902344 81.546875 269.320312 82.746094 C 270.414062 86.335938 271.5625 90.03125 272.1875 93.777344 C 276.09375 99.082031 279.691406 104.859375 282.867188 111.050781 C 283.546875 106.160156 283.910156 101.214844 284.015625 96.429688 C 284.066406 93.878906 284.015625 91.226562 283.910156 88.675781 C 283.804688 85.292969 283.703125 81.859375 283.910156 78.425781 C 283.910156 77.957031 284.328125 77.542969 284.847656 77.542969 C 285.316406 77.542969 285.683594 77.851562 285.734375 78.320312 " fill-opacity="1" fill-rule="nonzero"/></g><g fill="#000000" fill-opacity="1"><g transform="translate(152.65484, 155.917139)"><g><path d="M 8.082031 -15.105469 C 6.996094 -15.105469 4.921875 -14.984375 4.027344 -14.984375 L 0.894531 -15.105469 L 0.796875 -14.453125 C 1.640625 -14.285156 2.679688 -14.140625 2.773438 -13.269531 C 2.824219 -12.425781 2.871094 -11.242188 2.871094 -10.15625 L 2.871094 -4.800781 C 2.871094 -3.523438 2.796875 -2.097656 2.75 -1.039062 L 0.773438 -0.578125 L 0.867188 0.0976562 L 3.691406 0 L 4.367188 0 C 5.671875 0 7.191406 0.121094 8.105469 0.121094 C 13.171875 0.121094 15.925781 -3.015625 15.925781 -7.695312 C 15.925781 -12.570312 12.617188 -15.105469 8.082031 -15.105469 Z M 7.890625 -0.746094 C 6.996094 -0.746094 6.753906 -0.773438 5.574219 -0.773438 C 5.523438 -1.664062 5.453125 -3.355469 5.453125 -4.800781 L 5.453125 -14.164062 C 5.789062 -14.1875 6.753906 -14.210938 7.867188 -14.210938 C 11.941406 -14.210938 13.148438 -10.640625 13.148438 -7.382812 C 13.148438 -3.113281 10.738281 -0.746094 7.890625 -0.746094 Z M 7.890625 -0.746094 "/></g></g></g><g fill="#000000" fill-opacity="1"><g transform="translate(169.19922, 155.917139)"><g><path d="M 9.023438 0.363281 C 13.269531 0.363281 17.300781 -2.074219 17.300781 -7.527344 C 17.300781 -12.304688 13.777344 -15.320312 8.976562 -15.320312 C 4.730469 -15.320312 0.699219 -12.882812 0.699219 -7.457031 C 0.699219 -2.703125 4.269531 0.363281 9.023438 0.363281 Z M 3.523438 -7.40625 C 3.402344 -12.136719 6.441406 -14.378906 8.976562 -14.453125 C 12.28125 -14.550781 14.378906 -11.242188 14.5 -7.574219 C 14.597656 -2.847656 11.558594 -0.578125 9.023438 -0.53125 C 5.71875 -0.433594 3.617188 -3.765625 3.523438 -7.40625 Z M 3.523438 -7.40625 "/></g></g></g><g fill="#000000" fill-opacity="1"><g transform="translate(187.118275, 155.917139)"><g><path d="M 9.023438 0.363281 C 13.269531 0.363281 17.300781 -2.074219 17.300781 -7.527344 C 17.300781 -12.304688 13.777344 -15.320312 8.976562 -15.320312 C 4.730469 -15.320312 0.699219 -12.882812 0.699219 -7.457031 C 0.699219 -2.703125 4.269531 0.363281 9.023438 0.363281 Z M 3.523438 -7.40625 C 3.402344 -12.136719 6.441406 -14.378906 8.976562 -14.453125 C 12.28125 -14.550781 14.378906 -11.242188 14.5 -7.574219 C 14.597656 -2.847656 11.558594 -0.578125 9.023438 -0.53125 C 5.71875 -0.433594 3.617188 -3.765625 3.523438 -7.40625 Z M 3.523438 -7.40625 "/></g></g></g><g fill="#000000" fill-opacity="1"><g transform="translate(205.03733, 155.917139)"><g><path d="M 14.839844 -9.820312 C 14.839844 -11.265625 14.886719 -12.835938 14.886719 -13.945312 L 16.914062 -14.402344 L 16.816406 -15.078125 L 14.695312 -14.984375 L 13.875 -14.984375 L 11.824219 -15.152344 L 11.726562 -14.5 C 12.570312 -14.332031 13.609375 -14.164062 13.703125 -13.292969 C 13.730469 -12.351562 13.777344 -10.90625 13.800781 -9.289062 L 13.898438 -3.714844 C 12.761719 -4.800781 5.863281 -12.882812 4.269531 -14.984375 L 3.449219 -14.984375 L 0.894531 -15.105469 L 0.820312 -14.476562 C 1.640625 -14.308594 2.726562 -14.164062 2.773438 -13.320312 L 2.773438 -13.269531 C 2.796875 -12.523438 2.824219 -11.386719 2.824219 -10.183594 L 2.824219 -5.1875 C 2.824219 -3.714844 2.773438 -2.148438 2.773438 -1.039062 L 0.773438 -0.578125 L 0.867188 0.0976562 L 2.847656 0 L 3.765625 0 L 5.816406 0.144531 L 5.910156 -0.484375 C 5.066406 -0.675781 4.003906 -0.820312 3.933594 -1.6875 C 3.882812 -2.679688 3.835938 -4.222656 3.8125 -5.695312 L 3.714844 -11.558594 C 4.996094 -10.445312 13.753906 0 13.753906 0 L 14.960938 0 C 14.960938 -0.3125 14.839844 -1.738281 14.839844 -4.488281 Z M 14.839844 -9.820312 "/></g></g></g><g fill="#000000" fill-opacity="1"><g transform="translate(133.014217, 183.667138)"><g><path d="M 18.554688 -1.714844 C 18.457031 -2.484375 18.359375 -3.546875 18.265625 -4.777344 L 17.613281 -13.921875 L 19.617188 -14.402344 L 19.519531 -15.078125 L 16.695312 -14.984375 L 15.152344 -14.984375 C 15.007812 -14.644531 13.96875 -12.425781 12.617188 -9.917969 L 10.472656 -5.839844 L 8.613281 -9.820312 C 7.527344 -12.085938 6.730469 -13.992188 6.25 -14.984375 L 4.101562 -14.984375 L 1.566406 -15.152344 L 1.496094 -14.523438 C 2.339844 -14.332031 3.472656 -14.210938 3.449219 -13.320312 C 3.425781 -12.59375 3.328125 -11.484375 3.234375 -10.183594 L 2.824219 -5.644531 C 2.679688 -4.054688 2.484375 -2.21875 2.363281 -1.0625 L 0.386719 -0.578125 L 0.484375 0.0976562 L 3.015625 0 L 3.089844 0 L 5.453125 0.121094 L 5.550781 -0.507812 C 4.703125 -0.675781 3.570312 -0.917969 3.59375 -1.714844 C 3.617188 -2.507812 3.644531 -3.617188 3.714844 -4.800781 L 4.320312 -13.582031 L 5.140625 -11.773438 C 5.574219 -10.738281 7.960938 -5.574219 9.191406 -3.0625 L 10.230469 -3.089844 L 15.03125 -12.644531 C 15.25 -10.929688 15.539062 -5.765625 15.585938 -3.980469 C 15.632812 -2.75 15.632812 -1.738281 15.632812 -1.039062 L 13.65625 -0.578125 L 13.753906 0.0976562 L 16.574219 0 L 17.878906 0 L 20.4375 0.121094 L 20.53125 -0.53125 C 19.6875 -0.699219 18.675781 -0.84375 18.554688 -1.714844 Z M 18.554688 -1.714844 "/></g></g></g><g fill="#000000" fill-opacity="1"><g transform="translate(153.899683, 183.667138)"><g><path d="M 5.550781 -1.714844 C 5.523438 -2.535156 5.476562 -3.714844 5.476562 -4.800781 L 5.476562 -10.15625 C 5.476562 -11.53125 5.550781 -13.003906 5.597656 -13.945312 L 7.574219 -14.402344 L 7.480469 -15.078125 L 4.65625 -14.984375 L 3.5 -14.984375 L 0.917969 -15.105469 L 0.84375 -14.476562 C 1.6875 -14.308594 2.703125 -14.164062 2.796875 -13.269531 C 2.824219 -12.449219 2.871094 -11.242188 2.871094 -10.15625 L 2.871094 -4.800781 C 2.871094 -3.378906 2.796875 -1.953125 2.75 -1.039062 L 0.773438 -0.578125 L 0.867188 0.0976562 L 3.738281 0 L 4.875 0 L 7.429688 0.121094 L 7.527344 -0.507812 C 6.683594 -0.675781 5.621094 -0.820312 5.550781 -1.714844 Z M 5.550781 -1.714844 "/></g></g></g><g fill="#000000" fill-opacity="1"><g transform="translate(162.244222, 183.667138)"><g><path d="M 10.976562 -3.765625 L 9.601562 -0.964844 L 5.523438 -0.84375 C 5.476562 -1.6875 5.476562 -3.378906 5.476562 -4.800781 L 5.476562 -9.507812 C 5.476562 -11.074219 5.550781 -12.835938 5.597656 -13.945312 L 7.574219 -14.402344 L 7.480469 -15.078125 L 4.65625 -14.984375 L 3.472656 -14.984375 L 0.941406 -15.105469 L 0.84375 -14.453125 C 1.6875 -14.285156 2.703125 -14.140625 2.824219 -13.269531 C 2.847656 -12.402344 2.871094 -11.242188 2.871094 -10.15625 L 2.871094 -4.800781 C 2.871094 -3.425781 2.796875 -1.976562 2.75 -1.039062 L 0.773438 -0.578125 L 0.867188 0.0976562 L 3.691406 0 L 8.324219 0 C 9.335938 0.0234375 9.988281 0.121094 10.808594 0.242188 L 11.917969 -3.5 Z M 10.976562 -3.765625 "/></g></g></g><g fill="#000000" fill-opacity="1"><g transform="translate(174.326928, 183.667138)"><g><path d="M 5.550781 -1.714844 C 5.523438 -2.535156 5.476562 -3.714844 5.476562 -4.800781 L 5.476562 -10.15625 C 5.476562 -11.53125 5.550781 -13.003906 5.597656 -13.945312 L 7.574219 -14.402344 L 7.480469 -15.078125 L 4.65625 -14.984375 L 3.5 -14.984375 L 0.917969 -15.105469 L 0.84375 -14.476562 C 1.6875 -14.308594 2.703125 -14.164062 2.796875 -13.269531 C 2.824219 -12.449219 2.871094 -11.242188 2.871094 -10.15625 L 2.871094 -4.800781 C 2.871094 -3.378906 2.796875 -1.953125 2.75 -1.039062 L 0.773438 -0.578125 L 0.867188 0.0976562 L 3.738281 0 L 4.875 0 L 7.429688 0.121094 L 7.527344 -0.507812 C 6.683594 -0.675781 5.621094 -0.820312 5.550781 -1.714844 Z M 5.550781 -1.714844 "/></g></g></g><g fill="#000000" fill-opacity="1"><g transform="translate(182.671467, 183.667138)"><g><path d="M 7.648438 -14.042969 L 10.421875 -13.96875 L 11.628906 -11.53125 L 12.472656 -11.773438 L 12.015625 -15.152344 C 11.386719 -15.054688 10.398438 -14.984375 9.433594 -14.984375 L 3.207031 -14.984375 C 2.242188 -14.984375 1.253906 -15.054688 0.601562 -15.152344 L 0.167969 -11.773438 L 1.011719 -11.53125 L 2.148438 -13.96875 L 4.945312 -14.042969 C 4.96875 -13.824219 4.996094 -12.835938 4.996094 -11.96875 L 4.996094 -4.800781 C 4.996094 -3.523438 4.945312 -2.097656 4.898438 -1.039062 L 2.917969 -0.578125 L 3.015625 0.0976562 L 5.839844 0 L 6.972656 0 L 9.53125 0.121094 L 9.601562 -0.53125 C 8.757812 -0.699219 7.722656 -0.84375 7.648438 -1.714844 C 7.625 -2.558594 7.601562 -3.714844 7.601562 -4.800781 L 7.601562 -11.96875 C 7.601562 -12.835938 7.625 -13.824219 7.648438 -14.042969 Z M 7.648438 -14.042969 "/></g></g></g><g fill="#000000" fill-opacity="1"><g transform="translate(195.308868, 183.667138)"><g><path d="M 16.09375 -0.53125 C 15.25 -0.699219 14.742188 -0.894531 14.308594 -1.738281 C 13.945312 -2.558594 13.558594 -3.644531 13.125 -4.824219 L 9.410156 -15.105469 L 7.335938 -14.960938 L 3.402344 -4.679688 C 2.871094 -3.28125 2.269531 -1.929688 1.882812 -1.039062 L 0.167969 -0.578125 L 0.265625 0.0976562 L 2.773438 0 L 2.847656 0 L 2.847656 -0.0234375 L 5.261719 0.0976562 L 5.355469 -0.554688 C 4.175781 -0.699219 3.234375 -0.917969 3.355469 -1.664062 C 3.617188 -2.4375 3.980469 -3.5 4.390625 -4.558594 L 5.042969 -6.273438 C 5.332031 -6.273438 5.742188 -6.296875 6.371094 -6.296875 L 8.445312 -6.296875 C 9.167969 -6.296875 9.601562 -6.296875 9.917969 -6.273438 L 10.398438 -4.824219 C 10.929688 -3.257812 11.292969 -1.90625 11.53125 -1.039062 L 9.554688 -0.578125 L 9.652344 0.0976562 L 12.472656 0 L 14.355469 0 L 16.019531 0.121094 Z M 8.492188 -7.359375 L 5.453125 -7.359375 L 7.601562 -13.003906 L 9.53125 -7.359375 Z M 8.492188 -7.359375 "/></g></g></g><g fill="#000000" fill-opacity="1"><g transform="translate(211.563837, 183.667138)"><g><path d="M 13.824219 -1.738281 C 13.292969 -2.558594 12.933594 -3.980469 12.328125 -5.574219 C 11.652344 -7.335938 10.277344 -8.324219 8.300781 -8.953125 C 10.328125 -9.214844 12.015625 -10.277344 12.015625 -12.015625 C 12.015625 -13.488281 11.21875 -14.355469 9.554688 -14.765625 C 7.648438 -15.273438 6.128906 -14.984375 4.222656 -14.984375 L 3.472656 -14.984375 L 0.894531 -15.105469 L 0.820312 -14.453125 C 1.664062 -14.285156 2.703125 -14.140625 2.773438 -13.269531 C 2.824219 -12.425781 2.871094 -11.242188 2.871094 -10.15625 L 2.871094 -5.453125 C 2.871094 -3.835938 2.796875 -2.097656 2.75 -1.039062 L 0.773438 -0.578125 L 0.867188 0.0976562 L 3.691406 0 L 4.851562 0 L 7.429688 0.121094 L 7.503906 -0.53125 C 6.683594 -0.699219 5.597656 -0.867188 5.550781 -1.761719 C 5.5 -2.582031 5.453125 -3.714844 5.453125 -4.800781 L 5.453125 -14.1875 C 6.105469 -14.1875 6.441406 -14.210938 6.875 -14.210938 C 8.445312 -14.210938 9.625 -13.632812 9.625 -11.871094 C 9.625 -9.890625 7.574219 -9.3125 6.683594 -9.289062 L 6.226562 -9.289062 L 6.417969 -8.566406 C 8.226562 -8.445312 9.046875 -6.875 9.746094 -4.875 C 10.617188 -2.339844 11.558594 -0.507812 13.125 0 C 13.632812 0.167969 14.1875 0.21875 14.597656 0.167969 C 15.03125 0.0976562 15.394531 0 15.539062 -0.046875 L 15.585938 -0.3125 C 15.007812 -0.457031 14.453125 -0.722656 13.824219 -1.738281 Z M 13.824219 -1.738281 "/></g></g></g><g fill="#000000" fill-opacity="1"><g transform="translate(227.312348, 183.667138)"><g><path d="M 8.421875 -1.714844 C 8.371094 -2.558594 8.347656 -3.714844 8.347656 -4.800781 L 8.347656 -7.238281 L 10.183594 -10.109375 C 11.027344 -11.414062 12.039062 -12.859375 12.8125 -13.992188 L 14.5 -14.402344 L 14.402344 -15.078125 L 12.351562 -14.984375 L 9.386719 -15.105469 L 9.289062 -14.476562 C 10.15625 -14.308594 11.605469 -14.234375 11.265625 -13.558594 C 10.855469 -12.859375 10.183594 -11.75 9.53125 -10.761719 L 7.816406 -8.132812 C 6.5625 -10.375 5.332031 -12.691406 4.65625 -13.96875 L 6.828125 -14.402344 L 6.730469 -15.078125 L 3.546875 -14.984375 L 2.4375 -14.984375 L 0.265625 -15.105469 L 0.167969 -14.476562 C 1.011719 -14.308594 1.398438 -14.066406 1.953125 -13.222656 C 2.484375 -12.449219 3.113281 -11.414062 3.835938 -10.183594 L 5.742188 -6.875 L 5.742188 -4.800781 C 5.742188 -3.546875 5.695312 -2.125 5.644531 -1.039062 L 3.617188 -0.578125 L 3.738281 0.0976562 L 6.5625 0 L 7.746094 0 L 10.300781 0.121094 L 10.375 -0.53125 C 9.53125 -0.699219 8.492188 -0.84375 8.421875 -1.714844 Z M 8.421875 -1.714844 "/></g></g></g><g fill="#000000" fill-opacity="1"><g transform="translate(141.768122, 211.417136)"><g><path d="M 0.796875 -3.523438 L 1.085938 -0.746094 C 2.125 -0.0742188 3.304688 0.289062 4.945312 0.289062 C 7.550781 0.289062 9.675781 -1.328125 9.675781 -4.054688 C 9.675781 -6.5625 8.011719 -7.816406 6.34375 -8.855469 C 4.921875 -9.722656 3.472656 -11.027344 3.472656 -12.425781 C 3.472656 -13.4375 4.125 -14.378906 5.40625 -14.429688 C 6.25 -14.453125 6.828125 -14.332031 7.285156 -14.140625 L 8.132812 -11.726562 L 8.976562 -11.941406 L 8.542969 -14.984375 C 7.648438 -15.175781 6.683594 -15.320312 5.695312 -15.320312 C 3.015625 -15.320312 1.253906 -13.730469 1.253906 -11.558594 C 1.253906 -8.855469 2.917969 -7.960938 4.535156 -6.707031 C 6.054688 -5.523438 7.359375 -4.511719 7.359375 -3.039062 C 7.359375 -1.785156 6.371094 -0.652344 4.824219 -0.652344 C 3.789062 -0.652344 2.96875 -0.84375 2.4375 -1.328125 L 1.6875 -4.003906 Z M 0.796875 -3.523438 "/></g></g></g><g fill="#000000" fill-opacity="1"><g transform="translate(152.162618, 211.417136)"><g><path d="M 12.496094 -3.183594 L 10.976562 -0.722656 C 10.472656 -0.628906 9.820312 -0.554688 9.023438 -0.554688 C 5.308594 -0.554688 3.523438 -3.617188 3.523438 -7.503906 C 3.523438 -12.234375 6.492188 -14.429688 9.214844 -14.429688 C 10.230469 -14.429688 10.976562 -14.210938 11.4375 -13.898438 L 12.570312 -11.097656 L 13.414062 -11.339844 L 12.761719 -15.175781 C 11.605469 -15.175781 10.277344 -15.296875 8.976562 -15.296875 C 4.65625 -15.296875 0.699219 -12.859375 0.699219 -7.457031 C 0.699219 -2.703125 3.910156 0.289062 8.6875 0.289062 C 9.097656 0.289062 9.507812 0.265625 9.820312 0.21875 L 12.449219 -0.144531 L 13.4375 -2.945312 Z M 12.496094 -3.183594 "/></g></g></g><g fill="#000000" fill-opacity="1"><g transform="translate(166.777627, 211.417136)"><g><path d="M 15.730469 -1.785156 C 15.683594 -2.605469 15.632812 -3.738281 15.632812 -4.824219 L 15.632812 -10.183594 L 15.804688 -13.96875 L 17.757812 -14.402344 L 17.660156 -15.078125 L 15.273438 -14.984375 L 13.632812 -14.984375 L 11.097656 -15.105469 L 11.003906 -14.476562 C 11.847656 -14.308594 12.882812 -14.164062 12.980469 -13.269531 C 13.003906 -12.449219 13.054688 -11.265625 13.054688 -10.183594 L 13.054688 -8.589844 C 12.667969 -8.566406 10.496094 -8.515625 9.265625 -8.515625 C 7.457031 -8.515625 5.910156 -8.566406 5.476562 -8.589844 L 5.476562 -10.617188 C 5.476562 -11.339844 5.5 -12.882812 5.5 -13.945312 L 7.527344 -14.402344 L 7.40625 -15.078125 L 4.585938 -14.984375 L 3.355469 -14.984375 L 0.917969 -15.105469 L 0.820312 -14.476562 C 1.664062 -14.308594 2.703125 -14.140625 2.796875 -13.269531 C 2.847656 -12.425781 2.894531 -11.242188 2.894531 -10.15625 L 2.894531 -4.800781 L 2.726562 -1.011719 L 0.773438 -0.578125 L 0.867188 0.0976562 L 3.257812 0 L 5.210938 0 L 7.457031 0.121094 L 7.574219 -0.53125 C 6.707031 -0.652344 5.742188 -0.84375 5.597656 -1.714844 C 5.550781 -2.605469 5.476562 -3.714844 5.476562 -4.800781 L 5.476562 -7.457031 C 5.886719 -7.503906 7.480469 -7.550781 9.214844 -7.550781 C 10.566406 -7.550781 12.667969 -7.480469 13.054688 -7.457031 L 13.054688 -4.34375 L 13.003906 -1.011719 L 11.027344 -0.578125 L 11.121094 0.0976562 L 13.511719 0 L 15.828125 0 L 17.636719 0.121094 L 17.710938 -0.53125 C 16.863281 -0.699219 15.804688 -0.894531 15.730469 -1.785156 Z M 15.730469 -1.785156 "/></g></g></g><g fill="#000000" fill-opacity="1"><g transform="translate(185.299614, 211.417136)"><g><path d="M 9.023438 0.363281 C 13.269531 0.363281 17.300781 -2.074219 17.300781 -7.527344 C 17.300781 -12.304688 13.777344 -15.320312 8.976562 -15.320312 C 4.730469 -15.320312 0.699219 -12.882812 0.699219 -7.457031 C 0.699219 -2.703125 4.269531 0.363281 9.023438 0.363281 Z M 3.523438 -7.40625 C 3.402344 -12.136719 6.441406 -14.378906 8.976562 -14.453125 C 12.28125 -14.550781 14.378906 -11.242188 14.5 -7.574219 C 14.597656 -2.847656 11.558594 -0.578125 9.023438 -0.53125 C 5.71875 -0.433594 3.617188 -3.765625 3.523438 -7.40625 Z M 3.523438 -7.40625 "/></g></g></g><g fill="#000000" fill-opacity="1"><g transform="translate(203.218669, 211.417136)"><g><path d="M 9.023438 0.363281 C 13.269531 0.363281 17.300781 -2.074219 17.300781 -7.527344 C 17.300781 -12.304688 13.777344 -15.320312 8.976562 -15.320312 C 4.730469 -15.320312 0.699219 -12.882812 0.699219 -7.457031 C 0.699219 -2.703125 4.269531 0.363281 9.023438 0.363281 Z M 3.523438 -7.40625 C 3.402344 -12.136719 6.441406 -14.378906 8.976562 -14.453125 C 12.28125 -14.550781 14.378906 -11.242188 14.5 -7.574219 C 14.597656 -2.847656 11.558594 -0.578125 9.023438 -0.53125 C 5.71875 -0.433594 3.617188 -3.765625 3.523438 -7.40625 Z M 3.523438 -7.40625 "/></g></g></g><g fill="#000000" fill-opacity="1"><g transform="translate(221.137724, 211.417136)"><g><path d="M 10.976562 -3.765625 L 9.601562 -0.964844 L 5.523438 -0.84375 C 5.476562 -1.6875 5.476562 -3.378906 5.476562 -4.800781 L 5.476562 -9.507812 C 5.476562 -11.074219 5.550781 -12.835938 5.597656 -13.945312 L 7.574219 -14.402344 L 7.480469 -15.078125 L 4.65625 -14.984375 L 3.472656 -14.984375 L 0.941406 -15.105469 L 0.84375 -14.453125 C 1.6875 -14.285156 2.703125 -14.140625 2.824219 -13.269531 C 2.847656 -12.402344 2.871094 -11.242188 2.871094 -10.15625 L 2.871094 -4.800781 C 2.871094 -3.425781 2.796875 -1.976562 2.75 -1.039062 L 0.773438 -0.578125 L 0.867188 0.0976562 L 3.691406 0 L 8.324219 0 C 9.335938 0.0234375 9.988281 0.121094 10.808594 0.242188 L 11.917969 -3.5 Z M 10.976562 -3.765625 "/></g></g></g></svg>